# xmcd
#
# Track frame offsets:
#	150
#	30456
#	50996
#	89672
#	144905
#	186616
#
# Disc length: 2683 seconds
#
# Revision: 0
# Processed by: cddbd v1.5.2PL0 Copyright (c) Steve Scherf et al.
# Submitted via: audiograbber 1.83.01
#
DISCID=570a7906
DTITLE=Grateful Dead - 94-09-29 Boston Garden, Boston MA
DYEAR=1900
DGENRE=
TTITLE0=Space
TTITLE1=Spanish Jam
TTITLE2=The Other One
TTITLE3=Wharf Rat
TTITLE4=Sugar Magnolia
TTITLE5=I Fought The Law
EXTD=
EXTT0=
EXTT1=
EXTT2=
EXTT3=
EXTT4=
EXTT5=
PLAYORDER=
